<?xml version="1.0" encoding="UTF-8" standalone="no"?>
<!-- Uploaded to: SVG Repo, www.svgrepo.com, Transformed by: SVG Repo Mixer Tools -->

<svg
   width="32.154999"
   height="30.816999"
   viewBox="0 0 22.106562 21.186687"
   version="1.1"
   fill="#000000"
   id="svg1"
   xmlns="http://www.w3.org/2000/svg"
   xmlns:svg="http://www.w3.org/2000/svg"
   xmlns:rdf="http://www.w3.org/1999/02/22-rdf-syntax-ns#"
   xmlns:cc="http://creativecommons.org/ns#"
   xmlns:dc="http://purl.org/dc/elements/1.1/">
  <title
     id="title2">RSS</title>
  <defs
     id="defs2" />
  <g
     id="SVGRepo_iconCarrier"
     transform="matrix(0.48965936,0,0,0.47267566,0.30745297,0.21948753)">
    <title
       id="title1">RSS</title>
    <desc
       id="desc1">Created with Sketch.</desc>
    <defs
       id="defs1" />
    <g
       id="Icons"
       stroke="none"
       stroke-width="1"
       fill="none"
       fill-rule="evenodd">
      <g
         id="Color-"
         transform="translate(-800,-760)"
         fill="#ff9a00">
        <path
           d="m 800.00047,797.71429 c 0,-3.47129 2.8144,-6.28572 6.28565,-6.28572 3.47125,0 6.28565,2.81443 6.28565,6.28572 0,3.47128 -2.8144,6.28571 -6.28565,6.28571 -3.47125,0 -6.28565,-2.81443 -6.28565,-6.28571 z M 844,804 h -8.38034 c 0,-19.64129 -15.97811,-35.61957 -35.61919,-35.61957 V 760 C 824.2615,760 844,779.73871 844,804 Z m -14.66646,0 h -8.38034 c 0,-11.55314 -9.40018,-20.95186 -20.9532,-20.95186 v -8.382 c 16.17454,0 29.33354,13.15915 29.33354,29.33386 z"
           id="RSS" />
      </g>
    </g>
  </g>
  <metadata
     id="metadata2">
    <rdf:RDF>
      <cc:Work
         rdf:about="">
        <dc:title>RSS</dc:title>
      </cc:Work>
    </rdf:RDF>
  </metadata>
</svg>
